<svg width="24" height="24" viewBox="0 0 256 256" xmlns="http://www.w3.org/2000/svg" fill="currentColor">
  <!-- anvil -->
  <rect x="96" y="176" width="64" height="14" rx="4" />
  <rect x="112" y="150" width="32" height="28" rx="3" />
  <path d="M64 132 C64 118 78 108 96 108 L168 108 C182 108 190 116 198 126 C202 131 200 138 194 139 L188 140
       C186 140.6 184.6 142 184 144 L180 150 C178.6 153.6 175 156 171 156 L86 156
       C74 156 64 146 64 134 Z" />
  <!-- hammer, angled above the anvil -->
  <g transform="translate(150,40) rotate(35)">
    <rect x="-8" y="0" width="16" height="70" rx="7" />
    <rect x="-26" y="-26" width="52" height="34" rx="8" />
  </g>
</svg>
